# xmcd
#
# Track frame offsets:
#	150
#	11875
#	23273
#	32237
#	46764
#	65226
#	80251
#	92478
#	111518
#	126961
#	141412
#	156078
#	173497
#	190765
#	207412
#
# Disc length: 2922 seconds
#
# Revision: 3
# Processed by: cddbd v1.5.2PL0 Copyright (c) Steve Scherf et al.
# Submitted via: EasyCDDAExtractor 10.1.0.1
#
DISCID=c70b680f
DTITLE=Jakub Smolik - Az se ti jednou bude zdat
DYEAR=2008
DGENRE=Country
TTITLE0=Trochu rumu v lahvi
TTITLE1=Tvym snum (Too Soon To Know)
TTITLE2=16 ruzi
TTITLE3=Asi je cas (Stranger In My Place)
TTITLE4=Hvezda k zemi pada
TTITLE5=Az se ti jednou bude zdat
TTITLE6=Mozna me hledas
TTITLE7=Detsky oci
TTITLE8=Snad jsem to ja
TTITLE9=Tobe
TTITLE10=Kozenej klobouk
TTITLE11=Vis
TTITLE12=Zokejska balada
TTITLE13=Uz davno se mi nezda
TTITLE14=Lasko, Good bye (Any Old Arms Won't Do)
EXTD=
EXTT0=
EXTT1=
EXTT2=
EXTT3=
EXTT4=
EXTT5=
EXTT6=
EXTT7=
EXTT8=
EXTT9=
EXTT10=
EXTT11=
EXTT12=
EXTT13=
EXTT14=
PLAYORDER=
